HIERARCHY
ROOT Hips
{
	OFFSET 0.000000 0.000000 0.000000
	CHANNELS 6 Xposition Yposition Zposition Xrotation Yrotation Zrotation
	JOINT LeftUpLeg_virtual
	{
		OFFSET 0.000000 0.000000 0.000000
		CHANNELS 3 Xrotation Yrotation Zrotation
		JOINT LeftUpLeg
		{
			OFFSET 15.427100 -6.655098 0.678600
			CHANNELS 3 Xrotation Yrotation Zrotation
			JOINT LeftLeg
			{
				OFFSET 4.081073 -39.591068 13.024000
				CHANNELS 3 Xrotation Yrotation Zrotation
				JOINT LeftFoot
				{
					OFFSET -4.081074 -37.707932 -15.979700
					CHANNELS 3 Xrotation Yrotation Zrotation
					JOINT LeftToeBase
					{
						OFFSET 5.346399 -15.068900 20.645000
						CHANNELS 3 Xrotation Yrotation Zrotation
						JOINT LeftToe_End
						{
							OFFSET 2.754700 0.931300 11.300900
							CHANNELS 3 Xrotation Yrotation Zrotation
							End Site
							{
								OFFSET 0 0 0
							}
						}
					}
				}
			}
		}
	}
	JOINT RightUpLeg_virtual
	{
		OFFSET 0.000000 0.000000 0.000000
		CHANNELS 3 Xrotation Yrotation Zrotation
		JOINT RightUpLeg
		{
			OFFSET -15.569500 -6.655098 0.678600
			CHANNELS 3 Xrotation Yrotation Zrotation
			JOINT RightLeg
			{
				OFFSET -4.081825 -39.591045 13.023800
				CHANNELS 3 Xrotation Yrotation Zrotation
				JOINT RightFoot
				{
					OFFSET 4.081824 -37.707954 -15.979600
					CHANNELS 3 Xrotation Yrotation Zrotation
					JOINT RightToeBase
					{
						OFFSET -5.346400 -15.068900 20.645000
						CHANNELS 3 Xrotation Yrotation Zrotation
						JOINT RightToe_End
						{
							OFFSET -2.754700 0.931300 11.300900
							CHANNELS 3 Xrotation Yrotation Zrotation
							End Site
							{
								OFFSET 0 0 0
							}
						}
					}
				}
			}
		}
	}
	JOINT Spine_virtual
	{
		OFFSET 0.000000 0.000000 0.000000
		CHANNELS 3 Xrotation Yrotation Zrotation
		JOINT Spine
		{
			OFFSET -0.279200 12.230698 -2.892100
			CHANNELS 3 Xrotation Yrotation Zrotation
			JOINT Spine1
			{
				OFFSET -0.232667 10.192268 -1.242267
				CHANNELS 3 Xrotation Yrotation Zrotation
				JOINT Spine1_split
				{
					OFFSET -0.232667 10.192268 -1.242267
					CHANNELS 3 Xrotation Yrotation Zrotation
					JOINT Spine2
					{
						OFFSET -0.232667 10.192268 -1.242267
						CHANNELS 3 Xrotation Yrotation Zrotation
						JOINT Neck_virtual
						{
							OFFSET 0.000000 0.000000 0.000000
							CHANNELS 3 Xrotation Yrotation Zrotation
							JOINT Neck
							{
								OFFSET -0.418800 17.814194 8.416900
								CHANNELS 3 Xrotation Yrotation Zrotation
								JOINT Head
								{
									OFFSET 0.000000 7.031097 3.806800
									CHANNELS 3 Xrotation Yrotation Zrotation
									JOINT HeadTop_End
									{
										OFFSET 0.000000 24.646606 12.978600
										CHANNELS 3 Xrotation Yrotation Zrotation
										End Site
										{
											OFFSET 0 0 0
										}
									}
								}
							}
						}
						JOINT LeftShoulder_virtual
						{
							OFFSET 0.000000 0.000000 0.000000
							CHANNELS 3 Xrotation Yrotation Zrotation
							JOINT LeftShoulder
							{
								OFFSET 8.476499 7.247704 -3.868750
								CHANNELS 3 Xrotation Yrotation Zrotation
								JOINT LeftShoulder_split
								{
									OFFSET 8.476499 7.247704 -3.868750
									CHANNELS 3 Xrotation Yrotation Zrotation
									JOINT LeftArm
									{
										OFFSET 9.308998 -2.777710 0.208600
										CHANNELS 3 Xrotation Yrotation Zrotation
										JOINT LeftForeArm
										{
											OFFSET 29.972298 0.000000 0.000000
											CHANNELS 3 Xrotation Yrotation Zrotation
											JOINT LeftHand
											{
												OFFSET 26.026505 0.000000 0.000000
												CHANNELS 3 Xrotation Yrotation Zrotation
												End Site
												{
													OFFSET 0 0 0
												}
											}
										}
									}
								}
							}
						}
						JOINT RightShoulder_virtual
						{
							OFFSET 0.000000 0.000000 0.000000
							CHANNELS 3 Xrotation Yrotation Zrotation
							JOINT RightShoulder
							{
								OFFSET -7.570500 7.247704 -3.868750
								CHANNELS 3 Xrotation Yrotation Zrotation
								JOINT RightShoulder_split
								{
									OFFSET -7.570500 7.247704 -3.868750
									CHANNELS 3 Xrotation Yrotation Zrotation
									JOINT RightArm
									{
										OFFSET -9.308998 -2.777710 0.208500
										CHANNELS 3 Xrotation Yrotation Zrotation
										JOINT RightForeArm
										{
											OFFSET -29.972300 0.000000 0.000000
											CHANNELS 3 Xrotation Yrotation Zrotation
											JOINT RightHand
											{
												OFFSET -26.026505 0.000000 0.000000
												CHANNELS 3 Xrotation Yrotation Zrotation
												End Site
												{
													OFFSET 0 0 0
												}
											}
										}
									}
								}
							}
						}
					}
				}
			}
		}
	}
}
MOTION
Frames: 5
Frame Time: 0.03333333
0.621165 88.219727 -1.863167 0.000000 0.000000 0.000000 7.244801 -17.521863 1.785072 -34.761353 5.901082 10.998368 27.747874 5.904036 1.544405 -0.192397 -0.749485 -7.721729 1.933104 -1.458575 -0.720792 0.000000 0.000000 0.000000 8.090837 -18.227005 2.161210 -9.570326 -9.356518 -14.456432 23.102374 -2.458377 1.255528 -18.719025 -7.459528 13.948368 1.384639 1.473593 0.002180 0.000000 0.000000 0.000000 7.448336 -14.050382 1.577258 25.139807 4.781500 -1.374226 2.602881 2.055072 -1.657891 0.529978 1.433369 0.415553 0.000000 0.000000 0.000000 3.700340 1.657733 -0.940362 -14.295338 1.907642 1.716486 -11.475190 10.232717 -2.195238 0.000000 0.000000 0.000000 3.517206 1.999410 -1.100570 6.919905 -21.176561 8.873191 -0.865688 -0.787093 0.940660 -31.610590 -10.598852 -84.796197 -0.365568 -44.706819 -3.039160 0.000000 0.000000 0.000000 3.931357 1.921132 -0.864269 12.111399 25.679450 -20.393160 -4.877422 1.711231 -1.080601 -43.072877 1.112412 85.893809 -0.627500 60.996991 7.644527 0.000000 0.000000 0.000000 
0.658651 88.218483 -1.894012 0.000000 0.000000 0.000000 7.241116 -17.819689 1.826112 -34.736915 5.797610 11.078798 27.921279 6.099655 1.466220 -0.384842 -0.674743 -7.843318 2.037101 -1.459519 -0.740112 0.000000 0.000000 0.000000 8.079070 -18.386767 2.202396 -9.803970 -9.554878 -14.435654 23.107799 -2.378437 1.209474 -18.636810 -7.363437 13.743503 1.565557 1.452474 0.056671 0.000000 0.000000 0.000000 7.391198 -14.359783 1.539529 25.145055 4.736752 -1.317700 2.581841 2.053227 -1.590353 0.504367 1.349380 0.395580 0.000000 0.000000 0.000000 3.729229 1.700078 -0.918841 -14.192422 2.163315 1.606198 -11.571708 10.684271 -2.640770 0.000000 0.000000 0.000000 3.424921 2.015446 -1.069516 6.899700 -20.895203 8.635873 -0.679476 -1.463962 1.056402 -32.111940 -10.758020 -84.579940 -0.756834 -44.888478 -3.305937 0.000000 0.000000 0.000000 3.905143 1.940017 -0.789357 12.001771 25.664934 -20.154466 -5.032214 1.431266 -0.970070 -42.962641 0.327663 86.050282 -1.350470 61.375253 8.233302 0.000000 0.000000 0.000000 
0.724938 88.158745 -1.989380 0.000000 0.000000 0.000000 7.171390 -18.545811 1.880059 -34.659535 5.697848 11.367398 28.255676 6.473026 1.341393 -0.719694 -0.463898 -8.089043 2.157173 -1.449681 -0.781917 0.000000 0.000000 0.000000 7.974818 -18.991312 2.250619 -10.337594 -9.712652 -14.414626 23.245465 -2.045808 1.110766 -18.537499 -7.076377 13.541669 1.673859 1.467239 0.026176 0.000000 0.000000 0.000000 7.272160 -15.133881 1.542202 25.111754 4.698434 -1.180640 2.566421 2.066709 -1.530118 0.481648 1.236615 0.400710 0.000000 0.000000 0.000000 3.776592 1.742945 -0.900067 -14.091004 2.881099 1.259425 -11.719502 11.747185 -3.401705 0.000000 0.000000 0.000000 3.348457 2.064962 -1.032398 6.781901 -20.624753 7.955270 -0.470577 -2.082855 0.966070 -32.288449 -11.614790 -83.381481 -0.710811 -45.277174 -3.233874 0.000000 0.000000 0.000000 3.913103 1.957666 -0.748529 11.682063 25.501988 -19.639714 -5.199162 1.274587 -0.851065 -43.321318 0.952743 85.711805 -1.929213 61.107551 8.577500 0.000000 0.000000 0.000000 
0.822508 88.060318 -2.156654 0.000000 0.000000 0.000000 7.021681 -19.535101 1.947165 -34.542804 5.647408 11.792989 28.646198 7.001819 1.173512 -1.093627 -0.166050 -8.416815 2.252095 -1.430147 -0.826645 0.000000 0.000000 0.000000 7.811651 -19.955081 2.326319 -11.121446 -9.847645 -14.415265 23.584479 -1.472307 0.977503 -18.385855 -6.627620 13.344349 1.721965 1.505687 -0.066015 0.000000 0.000000 0.000000 7.075305 -16.280644 1.594603 25.058412 4.660686 -0.995343 2.576687 2.091027 -1.479822 0.431055 1.072002 0.486628 0.000000 0.000000 0.000000 3.816733 1.782433 -0.871782 -14.005382 3.934993 0.711145 -11.847062 13.193233 -4.312081 0.000000 0.000000 0.000000 3.316402 2.127245 -1.003524 6.584859 -20.367930 6.880547 -0.284679 -2.474592 0.725244 -32.081743 -13.087073 -81.376342 -0.358415 -45.666242 -2.970503 0.000000 0.000000 0.000000 3.955469 1.979848 -0.738416 11.208299 25.232751 -18.934720 -5.353950 1.247602 -0.659505 -44.108197 2.977044 85.011171 -2.328863 60.289820 8.690530 0.000000 0.000000 0.000000 
0.935821 87.939011 -2.384293 0.000000 0.000000 0.000000 6.819721 -20.668713 2.040017 -34.359673 5.658120 12.288508 28.997322 7.651623 0.976215 -1.424058 0.160901 -8.780162 2.319529 -1.405124 -0.855715 0.000000 0.000000 0.000000 7.602240 -21.154124 2.442962 -12.071822 -9.981680 -14.442819 24.078205 -0.709573 0.801073 -18.180715 -6.090448 13.098606 1.723692 1.550142 -0.192584 0.000000 0.000000 0.000000 6.827123 -17.665564 1.686816 25.012808 4.609379 -0.807331 2.622103 2.119339 -1.439116 0.542374 0.900429 0.563170 0.000000 0.000000 0.000000 3.834931 1.815509 -0.835119 -13.969611 5.176509 0.003300 -11.937350 14.605613 -5.151065 0.000000 0.000000 0.000000 3.315697 2.187491 -0.991251 6.325276 -20.131414 5.535347 -0.228006 -2.533572 0.557821 -31.475749 -15.089595 -78.775017 0.057936 -46.123543 -2.719692 0.000000 0.000000 0.000000 4.012054 2.010691 -0.752675 10.656949 24.917739 -18.150345 -5.448279 1.150507 -0.451080 -45.133265 6.052168 84.069629 -2.618770 59.128244 8.683816 0.000000 0.000000 0.000000 
